<svg width="333" height="494" viewBox="0 0 333 494" fill="none" xmlns="http://www.w3.org/2000/svg">
<path d="M25.1435 79.9992L24.6875 79.5432V0.655219L25.1435 0.199219H79.2935L79.7495 0.655219V13.8792L79.2935 14.3352H46.5755C41.7875 14.3352 39.2795 16.8432 39.2795 21.4032V24.0252C39.2795 28.5852 41.7875 31.2072 46.5755 31.2072H74.3915L74.8475 31.6632V44.8872L74.3915 45.3432H46.5755C41.7875 45.3432 39.2795 47.9652 39.2795 52.6392V58.5672C39.2795 63.2412 41.7875 65.8632 46.5755 65.8632H79.2935L79.7495 66.3192V79.5432L79.2935 79.9992H25.1435Z" fill="black"/>
<path d="M101.402 79.9992L100.946 79.5432L83.3903 21.1752L83.8463 20.7192H98.3243L98.7803 21.1752L108.926 57.7692C109.952 61.4172 111.548 63.3552 114.398 63.3552C117.362 63.3552 118.958 61.5312 119.984 57.7692L129.902 21.1752L130.358 20.7192H144.266L144.722 21.1752L127.166 79.5432L126.71 79.9992H101.402Z" fill="black"/>
<path d="M176.238 81.7092C157.884 81.7092 147.168 67.6872 147.168 49.4472C147.168 30.2952 159.366 19.0092 175.326 19.0092C191.172 19.0092 202.458 29.9532 202.458 45.9132V53.7792L202.002 54.2352H169.968C165.978 54.2352 163.47 55.8312 163.47 59.2512C163.47 63.9252 167.802 69.1692 175.896 69.1692C182.508 69.1692 187.524 65.5212 188.55 59.5932L189.006 59.1372H202.686L203.142 59.5932C200.862 73.1592 190.488 81.7092 176.238 81.7092ZM163.47 39.0732C163.47 42.4932 165.75 44.0892 168.372 44.0892H181.368C183.99 44.0892 186.27 42.4932 186.27 39.0732C186.27 34.6272 182.28 30.0672 175.098 30.0672C167.688 30.0672 163.47 34.6272 163.47 39.0732Z" fill="black"/>
<path d="M211.768 80.1132L211.312 79.6572V21.1752L211.768 20.7192H244.6L245.056 21.1752V33.6012L244.6 34.0572H234.796C229.096 34.0572 225.904 37.2492 225.904 42.9492V79.6572L225.448 80.1132H211.768Z" fill="black"/>
<path d="M255.517 106.219L255.061 105.763V95.0472L255.517 94.5912H265.549C271.363 94.5912 274.213 92.1972 275.353 88.6632C276.949 83.6472 274.327 79.9992 269.767 79.9992H266.347L265.891 79.5432L248.107 21.1752L248.563 20.7192H262.813L263.269 21.1752L273.643 57.7692C274.783 61.6452 276.265 63.3552 279.229 63.3552C282.193 63.3552 283.561 61.7592 284.701 57.7692L294.961 21.1752L295.417 20.7192H309.667L310.123 21.1752L284.587 105.763L284.131 106.219H255.517Z" fill="black"/>
<path d="M49.4807 182.999L49.0247 182.543V143.783C49.0247 139.109 46.5167 136.487 41.8427 136.487H35.2307L34.7747 136.031V124.175L35.2307 123.719H48.5687L49.0247 123.263V107.075L49.4807 106.619H63.2747L63.7307 107.075V123.263L64.1867 123.719H78.2087L78.6647 124.175V136.031L78.2087 136.487H70.9127C66.2387 136.487 63.7307 139.109 63.7307 143.783V163.049C63.7307 167.837 66.2387 170.003 70.9127 170.003H78.2087L78.6647 170.459V182.543L78.2087 182.999H49.4807Z" fill="black"/>
<path d="M86.6411 183.113L86.1851 182.657V103.655L86.6411 103.199H100.321L100.777 103.655V123.263L101.233 123.719H137.713L138.169 124.175V182.657L137.713 183.113H124.033L123.577 182.657V146.747C123.577 141.047 120.385 137.855 114.571 137.855H109.669C103.969 137.855 100.777 141.047 100.777 146.747V182.657L100.321 183.113H86.6411Z" fill="black"/>
<path d="M150.259 182.999L149.803 182.543V124.175L150.259 123.719H164.053L164.509 124.175V182.543L164.053 182.999H150.259ZM149.689 116.993V103.655L150.145 103.199H164.167L164.623 103.655V116.993L164.167 117.449H150.145L149.689 116.993Z" fill="black"/>
<path d="M176.588 182.999L176.132 182.543V124.175L176.588 123.719H227.66L228.116 124.175V182.543L227.66 182.999H213.98L213.524 182.543V145.949C213.524 140.249 210.332 137.057 204.518 137.057H199.616C193.916 137.057 190.724 140.249 190.724 145.949V182.543L190.268 182.999H176.588Z" fill="black"/>
<path d="M258.34 209.219C246.37 209.219 238.618 201.125 238.618 190.409V145.607C238.618 130.901 246.94 123.719 262.444 123.719H293.11L293.566 124.175V137.399L293.11 137.855H292.882C288.322 137.855 286.156 140.021 286.156 144.581V147.317C286.156 158.033 277.606 164.417 264.61 164.417H255.376C252.982 164.417 251.044 165.671 251.044 168.065C251.044 170.459 252.982 171.599 255.376 171.599H270.31C283.078 171.599 290.26 179.921 290.26 190.409C290.26 201.011 283.078 209.219 270.31 209.219H258.34ZM252.412 144.125C252.412 149.711 256.858 152.561 262.444 152.561C268.03 152.561 272.362 149.711 272.362 144.125C272.362 138.539 268.03 135.575 262.444 135.575C256.858 135.575 252.412 138.539 252.412 144.125ZM252.868 190.523C252.868 195.083 256.516 197.249 260.962 197.249H267.574C272.02 197.249 275.668 194.969 275.668 190.409C275.668 185.849 272.02 183.683 267.574 183.683H260.962C256.516 183.683 252.868 185.849 252.868 190.523Z" fill="black"/>
<path d="M87.5309 285.999L87.0749 285.543V259.893C87.0749 256.359 86.3908 253.851 84.5668 250.887L59.4869 206.655L59.9429 206.199H75.6749L76.2449 206.655L89.3549 230.481C92.2048 235.611 96.4229 235.725 99.3868 230.481L112.497 206.655L113.067 206.199H129.597L130.053 206.655L104.061 250.659C102.351 253.851 101.667 256.245 101.667 259.665V285.543L101.211 285.999H87.5309Z" fill="black"/>
<path d="M153.366 287.709C135.696 287.709 122.814 274.713 122.814 256.359C122.814 238.005 135.696 225.009 153.366 225.009C170.922 225.009 183.804 238.005 183.804 256.359C183.804 274.713 170.922 287.709 153.366 287.709ZM137.976 256.359C137.976 266.277 144.588 273.231 153.366 273.231C162.03 273.231 168.756 266.277 168.756 256.359C168.756 246.441 162.03 239.373 153.366 239.373C144.588 239.373 137.976 246.441 137.976 256.359Z" fill="black"/>
<path d="M192.757 226.719H206.437L206.893 227.175V263.769C206.893 269.469 210.085 272.661 215.785 272.661H220.687C226.501 272.661 229.693 269.469 229.693 263.769V227.175L230.149 226.719H243.829L244.285 227.175V285.543L243.829 285.999H192.757L192.301 285.543V227.175L192.757 226.719Z" fill="black"/>
<path d="M0.858344 389.113L0.402344 388.657V309.655L0.858344 309.199H14.5383L14.9943 309.655V329.263L15.4503 329.719H51.9303L52.3863 330.175V388.657L51.9303 389.113H38.2503L37.7943 388.657V352.747C37.7943 347.047 34.6023 343.855 28.7883 343.855H23.8863C18.1863 343.855 14.9943 347.047 14.9943 352.747V388.657L14.5383 389.113H0.858344Z" fill="black"/>
<path d="M80.3466 388.999C69.8586 388.999 61.4226 382.273 61.4226 371.329C61.4226 360.499 69.8586 353.887 80.3466 353.887H91.7466L92.2026 353.431V348.073C92.2026 343.171 88.5546 340.777 83.4246 340.777C77.7246 340.777 74.7606 343.855 74.5326 347.617L74.0766 348.073H60.2826L59.8266 347.617C59.8266 337.129 68.1486 328.009 83.9946 328.009C96.0786 328.009 106.795 333.139 106.795 346.363V367.909C106.795 372.583 109.303 375.205 114.091 375.205H114.433L114.889 375.661V388.543L114.433 388.999H80.3466ZM75.6726 371.329C75.6726 376.117 79.6626 378.739 83.6526 378.739H84.9066C89.0106 378.739 93.0006 376.117 93.0006 371.329C93.0006 366.655 89.0106 364.033 84.9066 364.033H83.6526C79.6626 364.033 75.6726 366.655 75.6726 371.329Z" fill="black"/>
<path d="M131.851 388.999L131.395 388.543L113.839 330.175L114.295 329.719H128.773L129.229 330.175L139.375 366.769C140.401 370.417 141.997 372.355 144.847 372.355C147.811 372.355 149.407 370.531 150.433 366.769L160.351 330.175L160.807 329.719H174.715L175.171 330.175L157.615 388.543L157.159 388.999H131.851Z" fill="black"/>
<path d="M206.686 390.709C188.332 390.709 177.616 376.687 177.616 358.447C177.616 339.295 189.814 328.009 205.774 328.009C221.62 328.009 232.906 338.953 232.906 354.913V362.779L232.45 363.235H200.416C196.426 363.235 193.918 364.831 193.918 368.251C193.918 372.925 198.25 378.169 206.344 378.169C212.956 378.169 217.972 374.521 218.998 368.593L219.454 368.137H233.134L233.59 368.593C231.31 382.159 220.936 390.709 206.686 390.709ZM193.918 348.073C193.918 351.493 196.198 353.089 198.82 353.089H211.816C214.438 353.089 216.718 351.493 216.718 348.073C216.718 343.627 212.728 339.067 205.546 339.067C198.136 339.067 193.918 343.627 193.918 348.073Z" fill="black"/>
<path d="M262.984 388.999L262.528 388.543V330.175L262.984 329.719H276.778L277.234 330.175V388.543L276.778 388.999H262.984ZM262.414 322.993V309.655L262.87 309.199H276.892L277.348 309.655V322.993L276.892 323.449H262.87L262.414 322.993Z" fill="black"/>
<path d="M309.493 390.823C294.217 390.823 286.123 381.133 285.097 370.759L285.553 370.303H299.347L299.803 370.759C300.145 375.661 304.249 379.195 309.949 379.195C314.737 379.195 318.157 377.143 318.157 373.039C318.157 363.805 286.579 367.111 286.579 346.477C286.579 336.103 295.243 327.895 309.151 327.895C320.779 327.895 331.267 334.279 332.749 346.819L332.293 347.275H318.385L317.929 346.819C317.587 342.259 313.711 339.409 308.581 339.409C304.021 339.409 300.601 341.233 300.601 345.451C300.601 355.027 332.293 351.835 332.293 372.241C332.293 382.273 324.085 390.823 309.493 390.823Z" fill="black"/>
<path d="M47.096 491.999L46.64 491.543V412.655L47.096 412.199H82.892L83.348 412.655L97.142 471.137C98.168 475.583 100.22 477.749 103.754 477.749H104.21C108.086 477.749 110.024 475.241 110.024 470.567V412.655L110.48 412.199H124.274L124.73 412.655V491.543L124.274 491.999H88.592L88.136 491.543L74.456 432.947C73.316 428.501 71.378 426.335 67.844 426.335H67.388C63.512 426.335 61.232 428.957 61.232 433.631V491.543L60.776 491.999H47.096Z" fill="black"/>
<path d="M164.048 493.709C145.694 493.709 134.978 479.687 134.978 461.447C134.978 442.295 147.176 431.009 163.136 431.009C178.982 431.009 190.268 441.953 190.268 457.913V465.779L189.812 466.235H157.778C153.788 466.235 151.28 467.831 151.28 471.251C151.28 475.925 155.612 481.169 163.706 481.169C170.318 481.169 175.334 477.521 176.36 471.593L176.816 471.137H190.496L190.952 471.593C188.672 485.159 178.298 493.709 164.048 493.709ZM151.28 451.073C151.28 454.493 153.56 456.089 156.182 456.089H169.178C171.8 456.089 174.08 454.493 174.08 451.073C174.08 446.627 170.09 442.067 162.908 442.067C155.498 442.067 151.28 446.627 151.28 451.073Z" fill="black"/>
<path d="M207.101 491.999L206.645 491.543L194.333 433.175L194.789 432.719H208.925L209.381 433.175L215.651 466.463C216.221 469.655 217.703 471.251 220.097 471.251C222.491 471.251 224.201 469.541 224.657 466.463L230.129 433.175L230.585 432.719H252.815L253.271 433.175L258.629 466.463C259.199 469.541 260.795 471.251 263.189 471.251C265.583 471.251 267.065 469.655 267.749 466.463L274.019 433.175L274.475 432.719H288.497L288.953 433.175L276.641 491.543L276.185 491.999H250.991L250.535 491.543L245.861 460.193C245.405 457.229 244.151 455.405 241.643 455.405C239.249 455.405 237.995 457.229 237.539 460.193L232.751 491.543L232.295 491.999H207.101Z" fill="black"/>
</svg>
