<svg width="24" height="24" viewBox="0 0 24 24" fill="none" xmlns="http://www.w3.org/2000/svg">
    <path d="M14.8016 12.3811L12.3828 14.7998C12.3191 14.8636 12.3753 14.9742 12.4634 14.9592C13.7478 14.7605 14.7622 13.7461 14.9609 12.4617C14.9741 12.3717 14.8653 12.3155 14.8016 12.3811Z" fill="#BBBBBB"/>
    <path d="M23.1378 11.8069C22.7909 11.2331 21.6603 9.48189 19.8472 7.83752C19.7009 7.70439 19.4722 7.71189 19.3316 7.85252L17.1097 10.0744C17.0103 10.1738 16.9784 10.3219 17.0197 10.4569C17.2109 11.0813 17.2916 11.7525 17.2334 12.4519C17.0216 14.9794 14.9797 17.0194 12.4522 17.2331C11.7528 17.2913 11.0816 17.2125 10.4572 17.0194C10.3222 16.9781 10.1759 17.01 10.0747 17.1094L8.78843 18.3956C8.58968 18.5944 8.6703 18.9338 8.93655 19.0181C9.8853 19.32 10.9072 19.5 12.0022 19.5C18.4222 19.5 22.4309 13.3688 23.1397 12.1931C23.2109 12.0731 23.2109 11.925 23.1397 11.8069H23.1378Z" fill="#BBBBBB"/>
    <path d="M18.705 4.23559L17.2857 5.65496C17.1694 5.77121 16.9913 5.79559 16.8469 5.72059C15.4369 4.99121 13.8169 4.49996 12.0019 4.49996C5.58191 4.49996 1.57504 10.6256 0.864414 11.805C0.791289 11.925 0.791289 12.0731 0.864414 12.1931C1.27691 12.8756 2.79941 15.2268 5.26129 17.0793C5.44129 17.2162 5.45816 17.4806 5.29691 17.6418L4.23566 18.7031C4.08941 18.8493 4.08941 19.0875 4.23566 19.2337L4.76629 19.7643C4.91254 19.9106 5.15066 19.9106 5.29691 19.7643L19.7644 5.29496C19.9107 5.14871 19.9107 4.91059 19.7644 4.76434L19.2338 4.23371C19.0875 4.08746 18.8494 4.08746 18.7032 4.23371L18.705 4.23559ZM6.75004 12C6.75004 9.10121 9.10129 6.74996 12 6.74996C13.1794 6.74996 14.2669 7.13809 15.1444 7.79434L13.5225 9.41621C13.0763 9.15184 12.5569 8.99809 12.0019 8.99809C10.3444 8.99809 9.00191 10.3406 9.00191 11.9981C9.00191 12.555 9.15566 13.0725 9.42004 13.5187L7.79816 15.1406C7.14191 14.265 6.75379 13.1756 6.75379 11.9962L6.75004 12Z" fill="#BBBBBB"/>
</svg>
