<svg xmlns="http://www.w3.org/2000/svg" width="24" height="24" viewBox="0 0 24 24" fill="none">
  <path d="M12 4.5C5.58004 4.5 1.57316 10.6294 0.864414 11.8069C0.791289 11.9269 0.791289 12.075 0.864414 12.195C1.57504 13.3725 5.58191 19.5019 12 19.5019C18.4182 19.5019 22.4269 13.3725 23.1357 12.195C23.2088 12.075 23.2088 11.9269 23.1357 11.8069C22.425 10.6294 18.4182 4.5 12 4.5ZM12 17.25C9.10129 17.25 6.75004 14.8988 6.75004 12C6.75004 9.10125 9.10129 6.75 12 6.75C14.8988 6.75 17.25 9.10125 17.25 12C17.25 14.8988 14.8988 17.25 12 17.25Z" fill="#BBBBBB"/>
  <path d="M12 15C13.6569 15 15 13.6569 15 12C15 10.3431 13.6569 9 12 9C10.3431 9 9 10.3431 9 12C9 13.6569 10.3431 15 12 15Z" fill="#BBBBBB"/>
</svg>