<svg xmlns="http://www.w3.org/2000/svg" width="24" height="24" viewBox="0 0 24 24" fill="none">
<path d="M21.9309 8.99057L11.619 2.17404C11.445 2.05801 11.2275 2 11.0099 2C10.7633 2 10.5023 2.08702 10.2992 2.24656L1.91636 9.03408C1.58278 9.29514 1.43775 9.71574 1.52477 10.1363L3.83079 21.1008C3.93231 21.6229 4.39641 22 4.93304 22H19.0157C19.5378 22 20.0019 21.6229 20.1034 21.1153L22.4095 10.1508C22.511 9.70123 22.3224 9.23713 21.9309 8.99057ZM20.1034 12.4278L19.0302 17.533C18.6966 19.0848 17.3188 20.2161 15.7235 20.2161H8.00773C6.5429 20.2161 5.25211 19.1719 4.94754 17.736L3.78728 12.1958C3.52622 10.9485 3.97582 9.67223 4.97655 8.86004L8.97945 5.62582C9.63209 5.1037 10.4443 4.81363 11.2855 4.81363C12.0106 4.81363 12.7068 5.01668 13.3014 5.42277L18.6966 8.99057C19.8424 9.74474 20.3935 11.0935 20.118 12.4278H20.1034Z" fill="#1C1C1B"/>
<path d="M13.0144 17.6624V12.6696C13.0144 12.238 12.7266 11.9502 12.295 11.9502H11.7194C11.2878 11.9502 11 12.238 11 12.6696V17.6624C11 18.0941 11.2878 18.3819 11.7194 18.3819H12.295C12.7266 18.3819 13.0144 18.0941 13.0144 17.6624Z" fill="#1C1C1B"/>
</svg>