<svg width="25" height="24" viewBox="0 0 25 24" fill="none" xmlns="http://www.w3.org/2000/svg">
<g clip-path="url(#clip0_1_1054)">
<path d="M21.7549 20.4192L18.3222 16.9865C17.4312 16.0955 17.2041 14.7527 17.7064 13.5967C18.2642 12.312 18.4838 10.8834 18.3147 9.41942C18.1455 7.95548 17.56 6.53697 16.6336 5.37843C14.8567 3.15223 12.1484 2.03408 9.31646 2.36473C7.85505 2.53636 6.45673 3.11437 5.30324 4.0306C3.06442 5.80752 1.94122 8.52338 2.27187 11.3629C2.44098 12.8042 3.00637 14.1848 3.89988 15.3282C5.47235 17.3373 7.79447 18.463 10.2907 18.463C11.4392 18.463 12.5472 18.2258 13.5669 17.7715C14.6952 17.2692 16.0203 17.5418 16.8936 18.4151L20.3263 21.8478C20.5232 22.0447 20.8437 22.0447 21.0406 21.8478L21.7549 21.1335C21.9518 20.9366 21.9518 20.6161 21.7549 20.4192ZM10.2933 16.4413C8.67536 16.4413 7.15336 15.8103 6.00997 14.6669C4.86658 13.5235 4.23557 12.0015 4.23557 10.3836C4.23557 8.76569 4.86658 7.2437 6.00997 6.10031C7.15336 4.95692 8.67536 4.32591 10.2933 4.32591C11.9112 4.32591 13.4332 4.95692 14.5766 6.10031C15.7199 7.2437 16.351 8.76569 16.351 10.3836C16.351 12.0015 15.7199 13.5235 14.5766 14.6669C13.4332 15.8103 11.9112 16.4413 10.2933 16.4413Z" fill="#1C1C1B"/>
</g>
<defs>
<clipPath id="clip0_1_1054">
<rect width="24" height="24" fill="white" transform="translate(0.3125)"/>
</clipPath>
</defs>
</svg>
