<svg width="20" height="20" viewBox="0 0 20 20" fill="none" xmlns="http://www.w3.org/2000/svg">
    <rect width="20" height="20" rx="10" fill="black" fill-opacity="0.1"/>
    <path d="M13.9227 6.45097L13.549 6.07725C13.446 5.97425 13.2783 5.97425 13.1753 6.07725L11.1205 8.13206C10.5012 8.7514 9.49884 8.7514 8.8795 8.13206L6.82469 6.07725C6.72169 5.97425 6.55398 5.97425 6.45097 6.07725L6.07725 6.45097C5.97425 6.55398 5.97425 6.72169 6.07725 6.82469L8.13206 8.8795C8.7514 9.49884 8.7514 10.5012 8.13206 11.1205L6.07725 13.1753C5.97425 13.2783 5.97425 13.446 6.07725 13.549L6.45097 13.9227C6.55398 14.0258 6.72169 14.0258 6.82469 13.9227L8.8795 11.8679C9.49884 11.2486 10.5012 11.2486 11.1205 11.8679L13.1753 13.9227C13.2783 14.0258 13.446 14.0258 13.549 13.9227L13.9227 13.549C14.0258 13.446 14.0258 13.2783 13.9227 13.1753L11.8679 11.1205C11.2486 10.5012 11.2486 9.49884 11.8679 8.8795L13.9227 6.82469C14.0258 6.72169 14.0258 6.55398 13.9227 6.45097Z" fill="#1C1C1B"/>
</svg>
