<svg width="164" height="157" viewBox="0 0 164 157" fill="none" xmlns="http://www.w3.org/2000/svg">
<g clip-path="url(#clip0_3261_176327)">
<path d="M72.3319 0.551955L0.918799 58.645C0.197594 59.2329 -0.138969 60.1805 0.0533522 61.1004L19.7251 155.022C19.9655 156.177 20.9752 157 22.1497 157H141.884C143.051 157 144.068 156.177 144.308 155.022L163.946 61.2664C164.159 60.2635 163.733 59.2329 162.888 58.6727L75.258 0.413622C74.3582 -0.188128 73.1768 -0.125878 72.3388 0.551955H72.3319Z" fill="#1C1C1B"/>
<path d="M64.4762 108.769C64.483 108.512 64.3944 108.407 64.1421 108.407H38.642C38.4443 108.4 38.2806 108.567 38.2806 108.769L38.3284 117.495L38.5193 121.317C38.5261 121.478 38.6556 121.603 38.8125 121.61L64.0194 121.77C64.1967 121.77 64.3399 121.624 64.333 121.45V115.949L64.4694 108.776L64.4762 108.769ZM59.008 117.174L56.7853 117.021C55.9398 116.993 55.6466 117.258 55.7353 117.968L55.9057 119.973C55.9125 120.078 55.7694 120.134 55.6944 120.05L54.2489 118.518C53.7239 117.933 53.3148 117.961 52.7625 118.518L51.3102 120.05C51.2352 120.127 51.0921 120.078 51.0989 119.973L51.2693 117.968C51.3307 117.153 50.9898 116.965 50.2193 117.021L47.9966 117.174C47.8807 117.181 47.8193 117.049 47.908 116.986L49.5989 115.677C50.2875 115.197 50.1648 114.793 49.5989 114.333L47.908 113.024C47.8193 112.954 47.8807 112.829 47.9966 112.836L50.2193 112.989C51.0307 113.038 51.3375 112.739 51.2693 112.042L51.0989 110.037C51.0921 109.932 51.2352 109.877 51.3102 109.96L52.7557 111.492C53.2534 112.021 53.7239 112.07 54.2421 111.492L55.6944 109.96C55.7694 109.884 55.9125 109.932 55.9057 110.037L55.7353 112.042C55.6739 112.773 55.9466 113.059 56.7853 112.989L59.008 112.836C59.1239 112.829 59.1853 112.961 59.0967 113.024L57.4057 114.333C56.7444 114.848 56.7989 115.176 57.4057 115.677L59.0967 116.986C59.1853 117.056 59.1239 117.181 59.008 117.174Z" fill="#F8F7F1"/>
<path d="M116.056 64.148L117.004 102.398C117.004 102.586 117.154 102.732 117.338 102.732H127.19C127.449 102.732 127.592 102.662 127.599 102.405L127.858 89.3415C127.858 88.7009 128.104 88.3736 128.717 88.3458L134.083 88.311C134.261 88.311 134.411 88.1647 134.418 87.9767L134.772 78.8616C134.779 78.6527 134.615 78.4786 134.411 78.4786L128.724 78.5204C128.008 78.5065 127.661 78.2837 127.62 77.4829L126.788 64.5379C126.774 64.2594 126.617 64.1758 126.406 64.1758L116.356 63.8486C116.186 63.8416 116.042 63.9809 116.049 64.1549L116.056 64.148Z" fill="#F8F7F1"/>
<path d="M98.9696 75.3033L99.0241 90.9431C99.0037 93.4221 99.6105 94.2368 102.167 94.195L113.179 94.2786C113.356 94.2786 113.499 94.4248 113.506 94.6059L113.711 102.293C113.711 102.481 113.567 102.642 113.383 102.642L87.1195 102.697C86.8809 102.697 86.6832 102.502 86.6832 102.259L86.2263 80.2613L86.1513 64.6563C86.1513 64.3499 86.2741 64.1828 86.5741 64.1828L112.463 64.1967C112.722 64.1967 112.865 64.2942 112.851 64.5658L112.776 71.6336C112.77 71.8495 112.592 72.0166 112.381 72.0166L102.004 71.9609C99.5014 71.9957 98.9151 72.7896 98.9832 75.3103L98.9696 75.3033Z" fill="#F8F7F1"/>
<path d="M68.2876 114.041L83.3218 114.02C84.9786 114.034 85.2718 114.542 85.1763 116.241L85.0127 118.776L84.8832 121.526C84.8763 121.721 84.965 121.805 85.1559 121.805L92.4446 121.819C92.5877 121.819 92.7105 121.7 92.7105 121.547L92.7582 117.864L93.215 108.971C93.2287 108.769 93.065 108.595 92.8673 108.595L68.2808 108.547C68.1376 108.547 68.0285 108.665 68.0217 108.804L68.0013 113.748C68.0013 113.908 68.1308 114.041 68.2876 114.041Z" fill="#F8F7F1"/>
<path d="M67.4081 123.163H94.0468C94.1832 123.163 94.2923 123.274 94.2923 123.413L94.3741 128.504C94.3741 128.657 94.2582 128.789 94.1014 128.789C92.7446 128.817 87.1195 128.949 84.9582 128.991C84.4604 128.998 84.2082 129.221 84.215 129.875L84.2354 137.103C84.2354 137.25 84.1195 137.368 83.9763 137.368L77.2195 137.347C77.0763 137.347 76.9536 137.229 76.9536 137.076L76.9127 129.785C76.9263 129.2 76.6808 128.949 76.1422 128.963L67.3944 129.089C67.2649 129.089 67.1558 128.984 67.1558 128.845L67.1762 123.399C67.1762 123.267 67.2785 123.163 67.4081 123.163Z" fill="#F8F7F1"/>
<path d="M102.365 116.422L96.0446 121.478C95.9491 121.568 95.9355 121.714 96.0173 121.819L99.0105 125.76C99.0855 125.858 99.2287 125.871 99.3173 125.788L104.751 121.457C105.829 120.531 106.626 120.551 107.799 121.478L113.179 125.781C113.281 125.865 113.431 125.844 113.513 125.732L116.54 121.77C116.601 121.68 116.588 121.554 116.499 121.492L110.186 116.457C109.067 115.58 108.74 114.841 109.142 114.208C109.388 113.825 109.899 113.748 110.513 113.748L114.979 113.686C115.095 113.686 115.183 113.588 115.183 113.477L115.136 108.818C115.136 108.7 115.04 108.609 114.931 108.609L97.5037 108.567C97.3809 108.567 97.2855 108.665 97.2855 108.79L97.2378 113.581C97.2378 113.672 97.3128 113.748 97.4014 113.748L101.676 113.72C102.604 113.72 103.088 113.825 103.367 114.208C103.592 114.514 103.763 115.19 102.379 116.422H102.365Z" fill="#F8F7F1"/>
<path d="M116.513 113.491L119.608 113.532C120.072 113.532 120.202 113.303 120.195 112.892V108.7C120.195 108.56 120.297 108.449 120.433 108.449L127.32 108.519C127.47 108.519 127.592 108.644 127.592 108.797V125.28C127.592 125.44 127.463 125.579 127.306 125.579L120.59 125.628C120.44 125.628 120.311 125.502 120.311 125.349L120.29 120.245C120.304 119.806 120.113 119.57 119.622 119.584L116.465 119.646C116.322 119.646 116.206 119.535 116.206 119.389V113.79C116.206 113.623 116.342 113.491 116.506 113.491H116.513Z" fill="#F8F7F1"/>
<path d="M98.2741 127.473L98.3696 136.985C98.3696 137.145 98.4991 137.277 98.6628 137.277L127.32 137.375C127.49 137.375 127.627 137.236 127.627 137.069L127.715 130.885L127.817 127.487C127.817 127.313 127.688 127.174 127.517 127.174H98.5741C98.4105 127.174 98.281 127.306 98.281 127.473H98.2741ZM111.631 133.176C111.058 133.176 110.601 132.73 110.601 132.125C110.601 131.895 110.601 131.303 110.601 131.303C110.601 130.648 111.031 130.251 111.631 130.251L119.261 130.224C119.867 130.224 120.283 130.6 120.283 131.275V132.125C120.283 132.751 119.915 133.176 119.261 133.176H111.631Z" fill="#F8F7F1"/>
<path d="M38.0352 122.856L64.4762 122.822C64.6467 122.822 64.7899 122.961 64.7899 123.142L64.824 127.745C64.824 127.884 64.7149 127.995 64.5785 127.995L56.6489 128.065C56.308 128.065 56.1716 128.267 56.1648 128.608L56.0489 131.198C56.0489 131.338 55.933 131.442 55.7966 131.449L48.6443 131.623C48.5011 131.623 48.3852 131.512 48.3784 131.366L48.3648 128.671C48.3852 128.323 48.1943 128.142 47.9148 128.142L37.9874 128.114C37.8443 128.114 37.7284 127.995 37.7284 127.849V123.17C37.7284 122.996 37.8647 122.856 38.0352 122.856Z" fill="#F8F7F1"/>
<path d="M38.3147 129.722L38.3829 136.999C38.3829 137.18 38.5329 137.326 38.7102 137.326H64.0671C64.2921 137.312 64.3467 137.257 64.3671 137.055L64.2921 132.925C64.2921 132.723 64.1489 132.605 63.9512 132.619L46.2989 132.856C45.6989 132.835 45.5489 132.577 45.5284 132.02L45.4398 129.59C45.4398 129.465 45.3307 129.36 45.2079 129.36L38.5806 129.43C38.4306 129.43 38.3079 129.555 38.3079 129.715L38.3147 129.722Z" fill="#F8F7F1"/>
<path d="M51.2352 86.2846L63.6512 86.1662C63.9308 86.1662 64.1626 85.9295 64.1626 85.644L64.2376 78.8338C64.2376 78.5831 64.0399 78.3811 63.7944 78.3811L51.2762 78.5065C49.9057 78.5065 49.1216 77.657 49.1216 76.4314L49.1011 73.3466C49.0534 71.7868 49.8443 71.2855 51.2421 71.2785L64.2103 71.3272C64.5035 71.3272 64.7421 71.0905 64.7421 70.7911L64.8103 64.5101C64.8103 64.2524 64.6058 64.0435 64.3535 64.0435L37.7897 64.2037C37.5443 64.2037 37.3465 64.4126 37.3465 64.6633L38.0147 102.551C38.0147 102.781 38.2056 102.969 38.4306 102.969L65.2876 102.809C65.5331 102.809 65.7308 102.607 65.7308 102.349V94.8983C65.7308 94.6546 65.5331 94.4527 65.2944 94.4457L51.2284 94.3969C49.8307 94.3969 49.0943 93.6936 49.0807 92.3219V88.3458C49.0671 86.8904 49.8375 86.2846 51.2216 86.2776L51.2352 86.2846Z" fill="#F8F7F1"/>
<path d="M81.2831 65.1855V64.3987C81.2831 64.1341 81.0718 63.9182 80.8127 63.9112L70.149 63.8764C69.8694 63.8764 69.6376 64.1062 69.6376 64.3917C69.6103 67.8595 69.474 87.6703 69.474 87.7887C69.474 87.9071 69.5012 99.5916 69.5012 102.28C69.5012 102.586 69.7399 102.823 70.0399 102.823H80.6422C80.9286 102.823 81.1604 102.593 81.1604 102.3C81.1809 98.2059 81.3309 71.2506 81.2831 65.1786V65.1855Z" fill="#F8F7F1"/>
<path d="M82.6672 51.4119C81.5286 50.3605 81.44 49.6572 82.6672 48.5779L85.8309 45.8134C85.9945 45.6672 85.8854 45.3956 85.6672 45.4095L81.515 45.7437C79.9468 45.883 79.4354 45.2772 79.5513 43.7383L79.8718 39.4976C79.8854 39.2748 79.6195 39.1633 79.4763 39.3305L76.7695 42.5615C75.8013 43.787 74.9286 43.6826 73.9945 42.5615L71.2876 39.3305C71.1444 39.1633 70.8785 39.2748 70.8922 39.4976L71.2194 43.7383C71.349 45.2145 70.7763 45.8482 69.2558 45.7437L65.1035 45.4165C64.8853 45.4025 64.7762 45.6741 64.9399 45.8203L68.1035 48.5848C69.1603 49.5527 69.3922 50.4092 68.1035 51.4189L64.9399 54.1834C64.7762 54.3296 64.8853 54.6012 65.1035 54.5872L69.2558 54.253C70.7013 54.1416 71.3354 54.5385 71.2194 56.2585L70.899 60.4992C70.8853 60.722 71.1513 60.8334 71.2944 60.6663L74.0013 57.4353C75.0308 56.2515 75.7945 56.2028 76.7763 57.4353L79.4831 60.6663C79.6263 60.8334 79.8922 60.722 79.8786 60.4992L79.5513 56.2585C79.3877 54.7544 79.9331 54.1903 81.515 54.253L85.6672 54.5803C85.8854 54.5942 85.9945 54.3226 85.8309 54.1764L82.6672 51.4119Z" fill="#F8F7F1"/>
</g>
<defs>
<clipPath id="clip0_3261_176327">
<rect width="164" height="157" fill="white"/>
</clipPath>
</defs>
</svg>
