<svg width="55" height="72" viewBox="0 0 55 72" fill="none" xmlns="http://www.w3.org/2000/svg">
<path d="M17.5213 21.9747C23.0271 19.7411 22.6014 13.1427 21.4696 9.22027C21.2955 8.61691 21.6896 7.97506 22.3123 8.00075C30.7864 8.35028 36.4578 22.139 38.8856 25.5862C40.3695 27.6932 41.5829 26.0867 42.3284 24.1287C42.6293 23.3386 43.7295 23.1449 44.161 23.8708C51.5377 36.2782 47.8951 46.9377 44.99 50.8663C43.4639 53.2739 37.97 59 28.203 59C18.4361 59 12.2645 52.93 10.3996 50.3504C3.31887 39.7674 7.35786 26.9348 10.9535 20.4893C11.3359 19.8038 12.348 19.9124 12.8538 20.5111C14.2949 22.217 16.438 22.2494 17.5213 21.9747Z" fill="#1C1C1B"/>
<path d="M21.7845 30.9366C25.3315 29.4899 27.2642 24.9056 27.126 22.1223C27.0967 21.5318 27.4814 20.9095 28.0554 20.9888C33.1249 21.6888 33.6657 31.3742 35.2592 33.6491C36.1286 34.8972 38.1805 36.5389 39.4325 33.1212C40.9975 28.8491 46.2008 42.3822 40.2083 50.4201C39.1847 52.0438 35.4998 55.291 28.9489 55.291C22.398 55.291 18.2586 51.8118 17.0078 50.0722C11.6115 43.5718 14.0447 34.3309 16.9519 30.1694C17.208 29.8029 17.7431 29.8727 18.0401 30.2056C19.1673 31.4691 20.8672 31.2582 21.7845 30.9366Z" fill="white"/>
<path d="M25.2652 41.9391C26.5784 41.3669 27.3469 39.6639 27.4304 38.452C27.4598 38.0258 27.7402 37.5629 28.1099 37.6962C29.8955 38.3402 30.1245 42.1787 30.7393 43.1164C31.0925 43.658 31.9261 44.3706 32.4347 42.8873C33.0705 41.0331 35.1844 46.9066 32.7499 50.3952C32.3341 51.0999 30.8371 52.5092 28.1758 52.5092C25.5145 52.5092 23.8329 50.9992 23.3247 50.2442C21.1778 47.4813 22.0814 43.5777 23.229 41.721C23.364 41.5025 23.6552 41.5465 23.8359 41.7206C24.2902 42.1582 24.9168 42.0697 25.2652 41.9391Z" fill="#1C1C1B"/>
</svg>
