<svg width="24" height="24" viewBox="0 0 24 24" fill="none" xmlns="http://www.w3.org/2000/svg">
    <path d="M2.50344 7.59677C2.58022 9.45045 3.26026 10.986 4.99329 13.2675C5.08103 13.3772 5.17975 13.4978 5.27847 13.6295C5.58559 14.0024 5.81592 14.2656 6.10111 14.5837C7.14311 15.7464 8.38255 16.9858 9.55618 18.0278L9.92911 18.3569C10.2143 18.5982 10.4885 18.8285 10.7408 19.026C13.0332 20.7699 14.4481 21.3952 16.3457 21.4939C18.5065 21.6036 20.2395 20.2215 21.0512 18.993C21.457 18.4008 21.5996 17.7975 21.4789 17.2271C21.3693 16.7116 21.0402 16.24 20.5686 15.9328C20.3273 15.7793 19.362 15.2199 18.4736 14.7044C17.8813 14.3534 17.3219 14.0353 17.0586 13.8817C16.1373 13.3223 15.5121 13.5307 15.0185 13.794C14.8759 13.8708 14.5907 14.0463 14.2946 14.2327C13.9875 14.4192 13.6694 14.6276 13.5158 14.7044C13.461 14.7373 13.3293 14.7263 13.2964 14.7044C13.1429 14.5947 12.5396 14.1669 11.4208 13.0701L11.1905 12.8397L11.1137 12.7629L10.9602 12.6094C9.85233 11.4906 9.42456 10.8873 9.32585 10.7447C9.30391 10.7009 9.30391 10.5802 9.32585 10.5144C9.40262 10.3608 9.61103 10.0318 9.80846 9.7137C9.98396 9.42851 10.1485 9.1543 10.2362 9.01171C10.4995 8.51813 10.6969 7.88195 10.1485 6.97157C9.76459 6.3354 8.36062 3.92232 8.11931 3.50552C8.00962 3.30809 7.88897 3.15453 7.75735 3.03388C7.48314 2.75966 7.18699 2.62804 6.95665 2.56223C6.39726 2.40867 5.76108 2.54029 5.07007 2.94613C4.02806 3.53843 2.41569 5.34823 2.50344 7.59677ZM5.83786 4.26235C6.29854 3.98814 6.50694 4.02104 6.56178 4.03201C6.63856 4.05395 6.70437 4.13073 6.79212 4.26235C7.03343 4.67915 8.44837 7.10319 8.83226 7.75033C9.00776 8.04648 8.98582 8.09036 8.88711 8.27682C8.82129 8.40844 8.66774 8.63878 8.51418 8.89106C8.29481 9.25302 8.0535 9.63692 7.96575 9.81241C7.69154 10.3608 7.73541 11.0848 8.06447 11.5783C8.40449 12.0719 9.0626 12.8397 9.87427 13.6733L10.1924 13.9914L10.3569 14.1559C11.1905 14.9786 11.9583 15.6367 12.4519 15.9657C12.9455 16.2948 13.6694 16.3387 14.2178 16.0645C14.3933 15.9767 14.7662 15.7464 15.1172 15.527C15.3805 15.3625 15.6218 15.2089 15.7534 15.1431C15.9399 15.0444 15.9837 15.0225 16.2799 15.1979C16.5431 15.3625 17.1135 15.6806 17.7168 16.0316C18.5723 16.5251 19.5156 17.0736 19.7459 17.2271C19.7898 17.26 19.9543 17.3697 19.9872 17.5452C20.0311 17.7317 19.8995 17.973 19.7898 18.1485C19.1427 19.1137 17.8593 20.046 16.4334 19.9692C15.0404 19.8925 13.9655 19.5524 11.6841 17.8085C11.4537 17.633 11.2015 17.4246 10.9163 17.1723L10.5872 16.8871C9.39166 15.8232 8.10834 14.5398 7.06633 13.3662L6.93471 13.2126C6.89084 13.1578 6.836 13.103 6.80309 13.0591C6.59469 12.8178 6.39726 12.5765 6.22176 12.3571C4.47777 10.0647 4.09387 8.85815 4.03903 7.5529C3.97322 6.07215 5.08103 4.72303 5.83786 4.28429V4.26235Z" fill="white"/>
</svg>
