<svg width="24" height="24" viewBox="0 0 24 24" fill="none" xmlns="http://www.w3.org/2000/svg">
<path d="M11.1875 19.7167L11.1875 11.5755C11.1875 10.5923 10.0866 10.0175 9.27406 10.5761C8.07969 11.3967 6.65375 11.9066 5.11813 11.9878C4.88453 12 4.6875 11.8152 4.6875 11.5816V10.7812C4.6875 10.5578 4.87031 10.375 5.09375 10.375C8.36 10.1739 10.9864 7.5475 11.1875 4.28125C11.1875 4.05781 11.3703 3.875 11.5938 3.875H12.4062C12.6297 3.875 12.8125 4.05781 12.8125 4.28125C12.8125 7.63281 15.5547 10.375 18.9062 10.375C19.1297 10.375 19.3125 10.5578 19.3125 10.7812V11.5816C19.3125 11.8152 19.1155 12 18.8819 11.9878C17.3462 11.9066 15.9203 11.3967 14.7259 10.5761C13.9155 10.0195 12.8125 10.5923 12.8125 11.5755L12.8125 19.7167C12.8125 19.9402 12.6297 20.123 12.4062 20.123H11.5937C11.3703 20.123 11.1875 19.9402 11.1875 19.7167Z" fill="#1C1C1B"/>
</svg>
